<?xml version="1.0" standalone="no"?>
<!DOCTYPE svg PUBLIC "-//W3C//DTD SVG 20010904//EN"
 "http://www.w3.org/TR/2001/REC-SVG-20010904/DTD/svg10.dtd">
<svg version="1.0" xmlns="http://www.w3.org/2000/svg"
 width="222.000000pt" height="227.000000pt" viewBox="0 0 222.000000 227.000000"
 preserveAspectRatio="xMidYMid meet">

<g transform="translate(0.000000,227.000000) scale(0.100000,-0.100000)"
fill="#000000" stroke="none">
<path d="M817 1978 c-507 -523 -585 -620 -659 -820 -74 -205 -39 -368 111
-519 107 -106 181 -142 307 -147 87 -4 97 -2 158 26 36 17 87 51 114 76 27 25
52 46 55 46 9 0 -31 -170 -59 -250 -31 -89 -101 -233 -146 -297 -55 -81 -72
-78 416 -81 390 -2 427 -1 433 14 3 10 -1 29 -10 43 -114 185 -189 370 -213
526 l-7 49 64 -53 c35 -30 88 -65 117 -79 47 -21 64 -23 146 -20 84 3 100 6
168 41 175 89 288 258 288 431 0 183 -119 405 -356 666 -183 202 -613 630
-632 630 -13 0 -115 -98 -295 -282z m877 -398 c270 -293 381 -546 320 -727
-36 -107 -137 -213 -254 -267 -74 -35 -182 -36 -249 -4 -59 28 -136 108 -185
192 -34 58 -43 67 -65 64 -26 -3 -26 -4 -24 -78 4 -173 57 -379 141 -550 31
-63 58 -118 60 -122 2 -5 -145 -8 -326 -8 l-330 0 49 97 c88 174 165 468 157
605 -3 46 -6 53 -25 56 -17 3 -31 -12 -73 -76 -59 -93 -123 -156 -187 -184
-65 -29 -177 -22 -256 15 -79 36 -188 145 -224 224 -23 49 -28 71 -28 148 0
111 24 188 98 310 83 135 164 229 502 578 l318 328 251 -258 c139 -142 287
-296 330 -343z"/>
</g>
</svg>
