<?xml version="1.0" standalone="no"?>
<!DOCTYPE svg PUBLIC "-//W3C//DTD SVG 20010904//EN"
 "http://www.w3.org/TR/2001/REC-SVG-20010904/DTD/svg10.dtd">
<svg version="1.0" xmlns="http://www.w3.org/2000/svg"
 width="225.000000pt" height="225.000000pt" viewBox="0 0 225.000000 225.000000"
 preserveAspectRatio="xMidYMid meet">

<g transform="translate(0.000000,225.000000) scale(0.100000,-0.100000)"
fill="#FFFFFF" stroke="none">
<path d="M821 1972 c-30 -14 -46 -40 -114 -174 l-80 -158 -259 0 -258 0 0 -70
0 -70 282 0 281 0 -36 -35 -36 -35 -246 0 -245 0 0 -452 c0 -411 2 -456 18
-488 32 -64 57 -70 318 -70 l232 0 53 -36 c234 -159 560 -160 783 -4 l57 40
232 0 c262 0 287 6 319 70 16 32 18 77 18 488 l0 452 -241 0 -242 0 -38 35
-39 35 280 0 280 0 0 70 0 70 -60 0 -60 0 0 50 0 50 -90 0 -90 0 0 -50 0 -50
-97 0 -98 0 -42 83 c-84 164 -134 238 -169 253 -26 11 -97 14 -306 14 -240 0
-277 -2 -307 -18z m563 -191 c35 -33 36 -92 1 -126 l-24 -25 -223 0 c-234 1
-243 2 -266 47 -25 46 -5 104 42 123 11 5 116 8 233 7 209 -2 212 -2 237 -26z
m-119 -296 c139 -37 270 -141 336 -270 47 -91 64 -160 62 -265 -3 -249 -181
-463 -428 -515 -88 -18 -132 -18 -218 0 -202 43 -370 205 -417 405 -18 74 -15
196 5 267 52 181 201 330 376 377 72 19 211 20 284 1z m-832 -407 c-22 -176
14 -372 94 -500 13 -21 23 -40 23 -43 0 -11 -240 -5 -265 7 -52 23 -55 44 -55
333 l0 265 105 0 106 0 -8 -62z m1587 -203 c0 -289 -3 -310 -55 -333 -15 -7
-74 -12 -144 -12 l-118 0 39 74 c69 133 98 316 75 479 l-8 57 105 0 106 0 0
-265z"/>
<path d="M993 1341 c-182 -67 -284 -235 -262 -432 24 -214 245 -379 456 -340
172 32 302 160 333 328 31 173 -67 356 -230 432 -75 35 -220 41 -297 12z m225
-125 c88 -31 152 -107 172 -200 39 -191 -147 -366 -333 -312 -140 41 -217 163
-196 310 13 84 86 170 173 203 44 16 136 16 184 -1z"/>
</g>
</svg>
